<?xml version="1.0" encoding="UTF-8"?>
<svg version="1.1" xmlns="http://www.w3.org/2000/svg" width="270" height="187">
<path d="M0 0 C7.08083917 3.50499943 13.35624398 4.77958618 21.19311523 5.43066406 C42.94849748 7.39036983 42.94849748 7.39036983 48.63061523 13.80566406 C49.84639466 16.95238729 50.01925428 18.80887687 48.78686523 21.96972656 C47.80111055 23.96235925 46.76199527 25.892515 45.63061523 27.80566406 C49.47433087 26.43487659 52.46895506 24.65036624 55.75561523 22.24316406 C61.04476464 18.37677977 65.04844136 17.26157308 71.63061523 17.80566406 C74.44071043 18.81441618 75.29759232 19.13961823 76.63061523 21.80566406 C77.70951432 33.82768241 77.70951432 33.82768241 74.75561523 39.24316406 C73.35717773 40.52832031 73.35717773 40.52832031 71.63061523 41.80566406 C70.93709961 42.340625 70.24358398 42.87558594 69.52905273 43.42675781 C67.86721328 44.64201175 66.17122666 45.81139912 64.45092773 46.94238281 C61.60285095 48.77416196 61.60285095 48.77416196 58.93530273 50.88769531 C49.28482188 57.82317422 39.10406833 58.90544893 27.54980469 60.3972168 C24.63100692 60.80560926 21.74889147 61.31650489 18.85327148 61.86425781 C3.61987049 64.68102044 -5.78834497 62.1283372 -19.37768555 55.29589844 C-24.60932471 52.68989832 -29.90242013 50.21517362 -35.19763184 47.74179077 C-37.01581881 46.88746016 -38.82698225 46.01823247 -40.63793945 45.14868164 C-46.90404877 42.18909101 -52.58310725 40.1405549 -59.36938477 38.80566406 C-62.2993399 35.87570893 -61.69393593 32.76846175 -61.70532227 28.84082031 C-61.71197906 28.05170761 -61.71863586 27.26259491 -61.72549438 26.4495697 C-61.73562661 24.77931045 -61.74031123 23.10901066 -61.73999023 21.4387207 C-61.74436227 18.88132101 -61.78066955 16.32564866 -61.81860352 13.76855469 C-61.8244718 12.14681581 -61.82844111 10.52506872 -61.83032227 8.90332031 C-61.8446933 8.13762222 -61.85906433 7.37192413 -61.87387085 6.58302307 C-61.82841939 1.30853409 -61.82841939 1.30853409 -59.6027832 -1.12963867 C-57.42387187 -2.16836105 -55.5355755 -2.84415015 -53.17407227 -3.32714844 C-52.380896 -3.49327637 -51.58771973 -3.6594043 -50.77050781 -3.83056641 C-49.5200769 -4.07250732 -49.5200769 -4.07250732 -48.24438477 -4.31933594 C-47.38562744 -4.48965332 -46.52687012 -4.6599707 -45.64208984 -4.83544922 C-43.22064794 -5.30544923 -40.79656786 -5.75507526 -38.36938477 -6.19433594 C-37.38583008 -6.37480469 -36.40227539 -6.55527344 -35.38891602 -6.74121094 C-23.59931853 -8.40004877 -10.54774063 -5.31680033 0 0 Z M6.63061523 27.80566406 C10.96088619 32.13593502 19.15073322 32.97552468 25.13061523 33.11816406 C30.69345377 32.92351594 36.17283683 31.83996386 41.63061523 30.80566406 C41.63061523 30.47566406 41.63061523 30.14566406 41.63061523 29.80566406 C37.48523819 29.46649275 33.33925305 29.13539453 29.19311523 28.80566406 C28.02844727 28.71027344 26.8637793 28.61488281 25.66381836 28.51660156 C19.29510421 28.01428045 13.0188622 27.69634647 6.63061523 27.80566406 Z " fill="#424242" transform="translate(138.369384765625,112.1943359375)"/>
<path d="M0 0 C1.18013672 -0.01611328 2.36027344 -0.03222656 3.57617188 -0.04882812 C4.71505859 -0.04947266 5.85394531 -0.05011719 7.02734375 -0.05078125 C8.0649585 -0.05376221 9.10257324 -0.05674316 10.17163086 -0.05981445 C14.38309168 0.48257874 17.03798557 2.14162636 19.8125 5.3125 C21.09784601 8.39733043 21.37774131 10.68961279 21.640625 14 C21.7221582 14.99386719 21.80369141 15.98773438 21.88769531 17.01171875 C21.94538086 17.77097656 22.00306641 18.53023437 22.0625 19.3125 C22.91481201 19.29678955 23.76712402 19.2810791 24.64526367 19.26489258 C27.82281226 19.21361038 31.00014913 19.17607518 34.17797852 19.14770508 C35.55044517 19.13266568 36.92286414 19.11222867 38.29516602 19.08618164 C40.27338656 19.04958779 42.25196514 19.03433302 44.23046875 19.01953125 C45.41922607 19.0038208 46.6079834 18.98811035 47.83276367 18.97192383 C51.47515807 19.35601485 53.17613464 20.08820045 56.0625 22.3125 C56.66377258 24.64738464 56.66377258 24.64738464 56.63012695 27.42651367 C56.6297493 28.46736618 56.62937164 29.50821869 56.62898254 30.58061218 C56.60317612 31.70256485 56.57736969 32.82451752 56.55078125 33.98046875 C56.54370651 35.13041824 56.53663177 36.28036774 56.52934265 37.46516418 C56.50131662 41.1440999 56.43855848 44.821523 56.375 48.5 C56.34992795 50.99151451 56.32711289 53.48305283 56.30664062 55.97460938 C56.25146289 62.08775714 56.16775343 68.20002053 56.0625 74.3125 C51.60112258 74.48265199 47.13952106 74.64288208 42.67749023 74.79467773 C41.16567858 74.84741721 39.65395226 74.90267499 38.14233398 74.96069336 C28.69619397 75.32123305 19.48713572 75.29974475 10.0625 74.3125 C9.8671875 70.9921875 9.671875 67.671875 9.4765625 64.3515625 C9.36032654 61.20687681 9.36032654 61.20687681 7.0625 59.3125 C3.77599802 58.95366417 3.77599802 58.95366417 0.0625 59 C-1.195625 58.98324219 -2.45375 58.96648437 -3.75 58.94921875 C-4.801875 59.06910156 -5.85375 59.18898437 -6.9375 59.3125 C-9.65632869 63.39074304 -9.36316777 66.88767292 -9.59375 71.6953125 C-9.7071875 72.55898437 -9.820625 73.42265625 -9.9375 74.3125 C-12.74050971 75.71400486 -15.06992085 75.44225869 -18.203125 75.4453125 C-19.48703125 75.44660156 -20.7709375 75.44789062 -22.09375 75.44921875 C-23.10501953 75.44607666 -23.10501953 75.44607666 -24.13671875 75.44287109 C-26.13801509 75.4376296 -28.13933059 75.44328606 -30.140625 75.44921875 C-38.79153963 75.44063649 -47.31961691 75.0488275 -55.9375 74.3125 C-55.98813235 67.10427849 -56.02320496 59.8961027 -56.04736328 52.68774414 C-56.05743245 50.23460171 -56.07108861 47.78147131 -56.08837891 45.32836914 C-56.11258679 41.80612217 -56.12397388 38.28403361 -56.1328125 34.76171875 C-56.14313507 33.66163986 -56.15345764 32.56156097 -56.16409302 31.42814636 C-56.16424408 30.40731461 -56.16439514 29.38648285 -56.16455078 28.3347168 C-56.168992 27.43536911 -56.17343323 26.53602142 -56.17800903 25.60942078 C-55.9375 23.3125 -55.9375 23.3125 -53.9375 20.3125 C-50.45967417 19.15322472 -47.74946743 19.19936934 -44.08203125 19.21484375 C-43.08957649 19.21696617 -43.08957649 19.21696617 -42.07707214 19.21913147 C-39.96800172 19.22472004 -37.85903823 19.23727035 -35.75 19.25 C-34.31836091 19.25501648 -32.88672015 19.25957913 -31.45507812 19.26367188 C-27.94918412 19.2746857 -24.4433525 19.29194245 -20.9375 19.3125 C-20.95780273 18.55976807 -20.97810547 17.80703613 -20.99902344 17.03149414 C-21.02270996 15.54830688 -21.02270996 15.54830688 -21.046875 14.03515625 C-21.06717773 13.05554932 -21.08748047 12.07594238 -21.10839844 11.06665039 C-20.86796393 7.1918766 -19.54066979 5.1326006 -16.9375 2.3125 C-11.86166244 -0.93500087 -5.8076459 -0.01580742 0 0 Z M-10.71118164 10.39770508 C-12.5667052 12.91598057 -12.5667052 12.91598057 -11.9375 19.3125 C-4.0175 19.3125 3.9025 19.3125 12.0625 19.3125 C12.0625 16.6725 12.0625 14.0325 12.0625 11.3125 C9.2425613 8.4925613 7.13345841 9.02287162 3.27929688 8.99023438 C2.40337891 8.99345703 1.52746094 8.99667969 0.625 9 C-0.68307617 8.97583008 -0.68307617 8.97583008 -2.01757812 8.95117188 C-2.85611328 8.95052734 -3.69464844 8.94988281 -4.55859375 8.94921875 C-5.70992798 8.94474731 -5.70992798 8.94474731 -6.88452148 8.94018555 C-8.98186509 9.19285209 -8.98186509 9.19285209 -10.71118164 10.39770508 Z " fill="#04A0EF" transform="translate(158.9375,11.6875)"/>
<path d="M0 0 C15.18 0 30.36 0 46 0 C46.495 2.475 46.495 2.475 47 5 C52.94 5 58.88 5 65 5 C65.33 3.35 65.66 1.7 66 0 C81.18 0 96.36 0 112 0 C112.103125 4.393125 112.20625 8.78625 112.3125 13.3125 C112.35802002 14.69477783 112.40354004 16.07705566 112.45043945 17.5012207 C112.46292725 18.59007568 112.47541504 19.67893066 112.48828125 20.80078125 C112.51446533 21.91622314 112.54064941 23.03166504 112.56762695 24.1809082 C112 27 112 27 109.9296875 28.86254883 C106.33417684 30.25850584 103.49490861 30.38836703 99.63671875 30.3984375 C98.92707474 30.40130768 98.21743073 30.40417786 97.48628235 30.40713501 C95.98262739 30.4091718 94.47894571 30.4036688 92.9753418 30.39111328 C90.73226423 30.37531527 88.49106211 30.39083486 86.24804688 30.41015625 C77.43572574 30.42182385 69.22795271 29.56973272 60.6105957 27.71630859 C56.88041862 26.97627617 53.28560175 26.58125984 49.5 26.25 C42.86824247 25.43766222 37.61171583 23.32909549 31.63110352 20.54150391 C22.54688854 16.32307659 13.91588226 15.73014808 4.02734375 15.24609375 C1 15 1 15 0 14 C0 9.38 0 4.76 0 0 Z " fill="#1AA9F0" transform="translate(103,89)"/>
<path d="M0 0 C0.73734375 -0.01224609 1.4746875 -0.02449219 2.234375 -0.03710938 C4.15770058 -0.04237395 6.08054263 0.06546553 8 0.1875 C10.54273722 2.73023722 10.2526488 3.63189439 10.25878906 7.15625 C10.26509338 8.19072266 10.27139771 9.22519531 10.27789307 10.29101562 C10.2738446 11.41185547 10.26979614 12.53269531 10.265625 13.6875 C10.26753845 14.83412109 10.2694519 15.98074219 10.27142334 17.16210938 C10.27278622 19.58984598 10.26908267 22.01758984 10.26074219 24.4453125 C10.25004438 28.17204073 10.26063431 31.89828686 10.2734375 35.625 C10.27211592 37.97916774 10.26955357 40.33333517 10.265625 42.6875 C10.26967346 43.80833984 10.27372192 44.92917969 10.27789307 46.08398438 C10.27158875 47.11845703 10.26528442 48.15292969 10.25878906 49.21875 C10.25640228 50.58870117 10.25640228 50.58870117 10.25396729 51.98632812 C10 54.1875 10 54.1875 8 56.1875 C5.29368306 56.3595611 2.7028606 56.41989017 0 56.375 C-0.73734375 56.37435547 -1.4746875 56.37371094 -2.234375 56.37304688 C-7.71898191 56.32800904 -7.71898191 56.32800904 -10 55.1875 C-10 37.3675 -10 19.5475 -10 1.1875 C-6.84044583 -0.39227708 -3.46536183 0.00302916 0 0 Z " fill="#1FAAF0" transform="translate(65,102.8125)"/>
<path d="M0 0 C1.18013672 -0.01611328 2.36027344 -0.03222656 3.57617188 -0.04882812 C4.71505859 -0.04947266 5.85394531 -0.05011719 7.02734375 -0.05078125 C8.0649585 -0.05376221 9.10257324 -0.05674316 10.17163086 -0.05981445 C14.38309168 0.48257874 17.03798557 2.14162636 19.8125 5.3125 C21.09784601 8.39733043 21.37774131 10.68961279 21.640625 14 C21.7221582 14.99386719 21.80369141 15.98773438 21.88769531 17.01171875 C21.94538086 17.77097656 22.00306641 18.53023437 22.0625 19.3125 C22.91481201 19.29678955 23.76712402 19.2810791 24.64526367 19.26489258 C27.82281226 19.21361038 31.00014913 19.17607518 34.17797852 19.14770508 C35.55044517 19.13266568 36.92286414 19.11222867 38.29516602 19.08618164 C40.27338656 19.04958779 42.25196514 19.03433302 44.23046875 19.01953125 C45.41922607 19.0038208 46.6079834 18.98811035 47.83276367 18.97192383 C51.47515807 19.35601485 53.17613464 20.08820045 56.0625 22.3125 C56.66377258 24.64738464 56.66377258 24.64738464 56.63012695 27.42651367 C56.6297493 28.46736618 56.62937164 29.50821869 56.62898254 30.58061218 C56.60317612 31.70256485 56.57736969 32.82451752 56.55078125 33.98046875 C56.54370651 35.13041824 56.53663177 36.28036774 56.52934265 37.46516418 C56.50131662 41.1440999 56.43855848 44.821523 56.375 48.5 C56.34992795 50.99151451 56.32711289 53.48305283 56.30664062 55.97460938 C56.25146289 62.08775714 56.16775343 68.20002053 56.0625 74.3125 C51.60112258 74.48265199 47.13952106 74.64288208 42.67749023 74.79467773 C41.16567858 74.84741721 39.65395226 74.90267499 38.14233398 74.96069336 C28.69619397 75.32123305 19.48713572 75.29974475 10.0625 74.3125 C9.8671875 70.9921875 9.671875 67.671875 9.4765625 64.3515625 C9.36032654 61.20687681 9.36032654 61.20687681 7.0625 59.3125 C3.77599802 58.95366417 3.77599802 58.95366417 0.0625 59 C-1.195625 58.98324219 -2.45375 58.96648437 -3.75 58.94921875 C-4.801875 59.06910156 -5.85375 59.18898437 -6.9375 59.3125 C-9.65632869 63.39074304 -9.36316777 66.88767292 -9.59375 71.6953125 C-9.7071875 72.55898437 -9.820625 73.42265625 -9.9375 74.3125 C-12.74050971 75.71400486 -15.06992085 75.44225869 -18.203125 75.4453125 C-19.48703125 75.44660156 -20.7709375 75.44789062 -22.09375 75.44921875 C-23.10501953 75.44607666 -23.10501953 75.44607666 -24.13671875 75.44287109 C-26.13801509 75.4376296 -28.13933059 75.44328606 -30.140625 75.44921875 C-38.79153963 75.44063649 -47.31961691 75.0488275 -55.9375 74.3125 C-55.98813235 67.10427849 -56.02320496 59.8961027 -56.04736328 52.68774414 C-56.05743245 50.23460171 -56.07108861 47.78147131 -56.08837891 45.32836914 C-56.11258679 41.80612217 -56.12397388 38.28403361 -56.1328125 34.76171875 C-56.14313507 33.66163986 -56.15345764 32.56156097 -56.16409302 31.42814636 C-56.16424408 30.40731461 -56.16439514 29.38648285 -56.16455078 28.3347168 C-56.168992 27.43536911 -56.17343323 26.53602142 -56.17800903 25.60942078 C-55.9375 23.3125 -55.9375 23.3125 -53.9375 20.3125 C-50.45967417 19.15322472 -47.74946743 19.19936934 -44.08203125 19.21484375 C-43.08957649 19.21696617 -43.08957649 19.21696617 -42.07707214 19.21913147 C-39.96800172 19.22472004 -37.85903823 19.23727035 -35.75 19.25 C-34.31836091 19.25501648 -32.88672015 19.25957913 -31.45507812 19.26367188 C-27.94918412 19.2746857 -24.4433525 19.29194245 -20.9375 19.3125 C-20.95780273 18.55976807 -20.97810547 17.80703613 -20.99902344 17.03149414 C-21.02270996 15.54830688 -21.02270996 15.54830688 -21.046875 14.03515625 C-21.06717773 13.05554932 -21.08748047 12.07594238 -21.10839844 11.06665039 C-20.86796393 7.1918766 -19.54066979 5.1326006 -16.9375 2.3125 C-11.86166244 -0.93500087 -5.8076459 -0.01580742 0 0 Z M-16.9375 4.3125 C-19.85079031 8.19688708 -20.07042344 11.32847255 -20.0078125 16.03125 C-19.99766113 17.02060547 -19.98750977 18.00996094 -19.97705078 19.02929688 C-19.96399902 19.78275391 -19.95094727 20.53621094 -19.9375 21.3125 C-20.89116455 21.29678955 -21.8448291 21.2810791 -22.82739258 21.26489258 C-26.36636913 21.21058322 -29.90530886 21.17614667 -33.44458008 21.14770508 C-34.97621861 21.13262064 -36.50781398 21.11215022 -38.03930664 21.08618164 C-40.24115654 21.04978153 -42.44243533 21.03277087 -44.64453125 21.01953125 C-45.67124687 20.99630547 -45.67124687 20.99630547 -46.71870422 20.97261047 C-50.40259143 20.94222736 -50.40259143 20.94222736 -53.62109375 22.53137207 C-55.3480398 24.86796979 -55.30036576 26.26090635 -55.27807617 29.15112305 C-55.27784958 30.1319133 -55.27762299 31.11270355 -55.27738953 32.12321472 C-55.26190567 33.17954605 -55.24642181 34.23587738 -55.23046875 35.32421875 C-55.22622391 36.40758011 -55.22197906 37.49094147 -55.21760559 38.60713196 C-55.20079569 42.07167277 -55.16313848 45.53563462 -55.125 49 C-55.10995619 51.34699682 -55.09626726 53.69400274 -55.08398438 56.04101562 C-55.05343486 61.79858028 -54.99471584 67.55489111 -54.9375 73.3125 C-40.4175 73.3125 -25.8975 73.3125 -10.9375 73.3125 C-10.6075 69.0225 -10.2775 64.7325 -9.9375 60.3125 C-7.9375 58.3125 -7.9375 58.3125 -6.05810547 58.08544922 C-5.31447754 58.09592285 -4.57084961 58.10639648 -3.8046875 58.1171875 C-2.99902344 58.12363281 -2.19335938 58.13007812 -1.36328125 58.13671875 C-0.52152344 58.15347656 0.32023437 58.17023438 1.1875 58.1875 C2.46173828 58.20103516 2.46173828 58.20103516 3.76171875 58.21484375 C5.86209884 58.23844353 7.96233444 58.27431517 10.0625 58.3125 C10.5575 65.7375 10.5575 65.7375 11.0625 73.3125 C25.5825 73.3125 40.1025 73.3125 55.0625 73.3125 C55.10833664 66.22819234 55.14818465 59.14439624 55.17236328 52.06005859 C55.18243954 49.64858256 55.19610081 47.23711878 55.21337891 44.82568359 C55.2375559 41.36552915 55.24896669 37.9055358 55.2578125 34.4453125 C55.26813507 33.36194611 55.27845764 32.27857971 55.28909302 31.16238403 C55.28924408 30.1614975 55.28939514 29.16061096 55.28955078 28.12939453 C55.293992 27.24559113 55.29843323 26.36178772 55.30300903 25.45120239 C55.26345721 23.09768548 55.26345721 23.09768548 53.0625 21.3125 C50.55329154 21.13754394 48.15625059 21.08080431 45.6484375 21.1171875 C44.55397812 21.12143234 44.55397812 21.12143234 43.43740845 21.12576294 C41.10393972 21.13696998 38.77085297 21.1620749 36.4375 21.1875 C34.85677637 21.19752915 33.27604673 21.20665511 31.6953125 21.21484375 C27.81756086 21.23691095 23.94009522 21.27144385 20.0625 21.3125 C20.08570313 20.57644531 20.10890625 19.84039063 20.1328125 19.08203125 C20.15085937 18.10621094 20.16890625 17.13039063 20.1875 16.125 C20.21070313 15.16207031 20.23390625 14.19914062 20.2578125 13.20703125 C19.98465211 9.15879425 19.16696277 6.31007927 16.125 3.5625 C11.12378928 0.5314632 5.90989187 1.09176899 0.25 1.0625 C-0.73548828 1.041875 -1.72097656 1.02125 -2.73632812 1 C-8.21271077 0.97057686 -12.25142474 1.13293359 -16.9375 4.3125 Z " fill="#D6EFF7" transform="translate(158.9375,11.6875)"/>
<path d="M0 0 C1.97909398 -0.02686553 3.95828971 -0.04633375 5.9375 -0.0625 C7.03964844 -0.07410156 8.14179688 -0.08570312 9.27734375 -0.09765625 C12 0 12 0 13 1 C13.12663091 3.82416382 13.18520548 6.61294793 13.1875 9.4375 C13.19974609 10.22705078 13.21199219 11.01660156 13.22460938 11.83007812 C13.22987279 13.88807435 13.12206285 15.94562009 13 18 C11 20 11 20 7.6875 20.25 C4.23334158 20.01581977 2.12230545 19.35425297 -1 18 C-1.02707139 15.75006641 -1.04642829 13.50003905 -1.0625 11.25 C-1.07410156 9.99703125 -1.08570313 8.7440625 -1.09765625 7.453125 C-1.02021027 4.71463499 -0.82780815 2.58119707 0 0 Z " fill="#4FBBF1" transform="translate(153,73)"/>
<path d="M0 0 C2.58926331 2.58926331 2.37398043 4.02705279 2.625 7.625 C2.69976562 8.62789062 2.77453125 9.63078125 2.8515625 10.6640625 C2.90054688 11.43492188 2.94953125 12.20578125 3 13 C4.27846802 12.97643433 4.27846802 12.97643433 5.58276367 12.95239258 C8.76031226 12.90111038 11.93764913 12.86357518 15.11547852 12.83520508 C16.48794517 12.82016568 17.86036414 12.79972867 19.23266602 12.77368164 C21.21088656 12.73708779 23.18946514 12.72183302 25.16796875 12.70703125 C26.35672607 12.6913208 27.5454834 12.67561035 28.77026367 12.65942383 C32.41265807 13.04351485 34.11363464 13.77570045 37 16 C37.60127258 18.33488464 37.60127258 18.33488464 37.56762695 21.11401367 C37.5672493 22.15486618 37.56687164 23.19571869 37.56648254 24.26811218 C37.54067612 25.39006485 37.51486969 26.51201752 37.48828125 27.66796875 C37.48120651 28.81791824 37.47413177 29.96786774 37.46684265 31.15266418 C37.43881662 34.8315999 37.37605848 38.509023 37.3125 42.1875 C37.28742795 44.67901451 37.26461289 47.17055283 37.24414062 49.66210938 C37.19321023 55.77579345 37.09536256 61.88620057 37 68 C27.43 68 17.86 68 8 68 C8 67.67 8 67.34 8 67 C17.24 67 26.48 67 36 67 C35.88039357 59.89741406 35.75787571 52.79500838 35.62768555 45.69262695 C35.58426122 43.27436361 35.54259188 40.8560681 35.50268555 38.43774414 C35.44516397 34.97011604 35.38141813 31.50265097 35.31640625 28.03515625 C35.29969376 26.94662857 35.28298126 25.85810089 35.26576233 24.73658752 C35.2358445 23.23514442 35.2358445 23.23514442 35.20532227 21.70336914 C35.18200584 20.37433311 35.18200584 20.37433311 35.15821838 19.01844788 C35.22018675 17.00362459 35.22018675 17.00362459 34 16 C31.55391002 15.84019563 29.13268942 15.74070553 26.68359375 15.68359375 C25.95253922 15.66281265 25.22148468 15.64203156 24.46827698 15.62062073 C22.12478344 15.55504976 19.78117461 15.49620568 17.4375 15.4375 C15.85220145 15.39432192 14.26691471 15.35070787 12.68164062 15.30664062 C8.78787702 15.19853718 4.89403042 15.09952117 1 15 C0.67 10.05 0.34 5.1 0 0 Z " fill="#CAE9F5" transform="translate(178,18)"/>
</svg>
